<svg xmlns="http://www.w3.org/2000/svg" xmlns:xlink="http://www.w3.org/1999/xlink" width="1024" zoomAndPan="magnify" viewBox="0 0 768 767.999994" height="1024" preserveAspectRatio="xMidYMid meet" version="1.0"><defs><clipPath id="ea45e191c4"><path d="M 230 76.800781 L 538 76.800781 L 538 231 L 230 231 Z M 230 76.800781" clip-rule="nonzero"/></clipPath><clipPath id="9ae8fab0ea"><path d="M 76.800781 230 L 231 230 L 231 538 L 76.800781 538 Z M 76.800781 230" clip-rule="nonzero"/></clipPath><clipPath id="1bea812f83"><path d="M 537 230 L 691.050781 230 L 691.050781 538 L 537 538 Z M 537 230" clip-rule="nonzero"/></clipPath><clipPath id="6eb7594f02"><path d="M 230 537 L 538 537 L 538 691.050781 L 230 691.050781 Z M 230 537" clip-rule="nonzero"/></clipPath></defs><g clip-path="url(#ea45e191c4)"><path fill="#1800ad" d="M 537.59375 76.800781 L 537.59375 230.398438 L 230.398438 230.398438 L 230.398438 76.800781 Z M 537.59375 76.800781" fill-opacity="1" fill-rule="nonzero"/></g><g clip-path="url(#9ae8fab0ea)"><path fill="#1800ad" d="M 230.398438 537.59375 L 230.398438 230.398438 L 76.800781 230.398438 L 76.800781 537.59375 Z M 230.398438 537.59375" fill-opacity="1" fill-rule="nonzero"/></g><g clip-path="url(#1bea812f83)"><path fill="#1800ad" d="M 537.59375 230.398438 L 691.191406 230.398438 L 691.191406 537.59375 L 537.59375 537.59375 Z M 537.59375 230.398438" fill-opacity="1" fill-rule="nonzero"/></g><g clip-path="url(#6eb7594f02)"><path fill="#1800ad" d="M 537.59375 537.59375 L 230.398438 537.59375 L 230.398438 691.191406 L 537.59375 691.191406 Z M 537.59375 537.59375" fill-opacity="1" fill-rule="nonzero"/></g></svg>